<svg xmlns="http://www.w3.org/2000/svg" viewBox="0 0 192.11 192.11"><defs><style>.cls-1{fill:none;stroke:#2b3990;stroke-miterlimit:10;stroke-width:2px;}.cls-2{font-size:22.23px;letter-spacing:0.07em;}.cls-2,.cls-3,.cls-4{fill:#2b3990;font-family:MyriadPro-Regular, Myriad Pro;}.cls-3{font-size:22px;}.cls-4{font-size:20px;}</style></defs><title>pe_stamp_1</title><g id="Layer_2" data-name="Layer 2"><g id="Layer_1-2" data-name="Layer 1"><circle class="cls-1" cx="96.05" cy="96.05" r="95.05"/><line class="cls-1" x1="6.48" y1="128.91" x2="184.95" y2="128.91"/><line class="cls-1" x1="1.01" y1="94.5" x2="191.11" y2="94.5"/><text class="cls-2" transform="translate(71.15 88.6)">CIVIL</text><text class="cls-3" transform="translate(44.01 165.98) rotate(31.98)">S</text><text class="cls-3" transform="translate(54.06 172.08) rotate(27.39)">I</text><text class="cls-3" transform="translate(59.63 175.18) rotate(21.58)">N</text><text class="cls-3" transform="translate(74.86 181.07) rotate(11.38)">G</text><text class="cls-3" transform="translate(90.99 184.05) rotate(-1.05)">A</text><text class="cls-3" transform="translate(106.12 183.58) rotate(-10.22)">P</text><text class="cls-3" transform="translate(119.37 181.18) rotate(-20.02)">O</text><text class="cls-3" transform="matrix(0.87, -0.49, 0.49, 0.87, 135.13, 175.13)">R</text><text class="cls-3" transform="matrix(0.79, -0.61, 0.61, 0.79, 146.64, 168.45)">E</text><text class="cls-4" transform="translate(20.36 88.76) rotate(-75.7)">P</text><text class="cls-4" transform="translate(23.11 78.05) rotate(-70.01)">R</text><text class="cls-4" transform="matrix(0.46, -0.89, 0.89, 0.46, 26.84, 67.53)">O</text><text class="cls-4" transform="translate(33.36 55.07) rotate(-55.1)">F</text><text class="cls-4" transform="matrix(0.67, -0.74, 0.74, 0.67, 39.11, 46.84)">E</text><text class="cls-4" transform="matrix(0.77, -0.63, 0.63, 0.77, 45.93, 39.39)">S</text><text class="cls-4" transform="translate(53.76 33.02) rotate(-30.36)">S</text><text class="cls-4" transform="translate(62.65 28.01) rotate(-23.6)">I</text><text class="cls-4" transform="translate(67.17 25.72) rotate(-15.53)">O</text><text class="cls-4" transform="matrix(1, -0.09, 0.09, 1, 80.65, 22.05)">N</text><text class="cls-4" transform="translate(94.02 20.89) rotate(2.82)">A</text><text class="cls-4" transform="matrix(0.98, 0.18, -0.18, 0.98, 106.55, 21.6)">L</text><text class="cls-4" transform="matrix(0.96, 0.27, -0.27, 0.96, 116.21, 23.5)"> </text><text class="cls-4" transform="translate(120.69 24.63) rotate(21.94)">E</text><text class="cls-4" transform="translate(130.05 28.25) rotate(32.12)">N</text><text class="cls-4" transform="translate(141.26 35.33) rotate(43.54)">G</text><text class="cls-4" transform="translate(150.64 44.64) rotate(50.96)">I</text><text class="cls-4" transform="matrix(0.53, 0.85, -0.85, 0.53, 154.04, 48.49)">N</text><text class="cls-4" transform="translate(161.09 59.97) rotate(65.48)">E</text><text class="cls-4" transform="translate(165.31 69.3) rotate(71.38)">E</text><text class="cls-4" transform="translate(168.59 78.99) rotate(77.22)">R</text></g></g></svg>